<svg width="148" height="41" viewBox="0 0 148 41" fill="none" xmlns="http://www.w3.org/2000/svg">
    <path d="M7.39916 9.916C7.54849 10.2147 7.63249 10.4947 7.65116 10.756C7.68849 11.0173 7.70716 11.4933 7.70716 12.184C7.70716 12.8747 7.47382 14.816 7.00716 18.008L6.75516 19.632C9.27516 17.56 11.4032 15.5533 13.1392 13.612C14.8752 11.652 16.0978 9.99067 16.8072 8.628C17.4232 9.71067 17.7312 10.7747 17.7312 11.82C17.7312 12.8467 17.1992 13.9013 16.1352 14.984C15.0898 16.0667 13.5032 17.392 11.3752 18.96C12.6818 23.0853 14.1472 26.2773 15.7712 28.536C16.4618 29.488 17.3392 30.524 18.4032 31.644C17.7125 31.8307 17.0218 31.924 16.3312 31.924C15.6405 31.924 14.9312 31.7093 14.2032 31.28C13.4752 30.8507 12.8405 30.328 12.2992 29.712C11.7765 29.096 11.2352 28.2747 10.6752 27.248C9.87249 25.736 9.00449 23.748 8.07116 21.284C7.54849 21.676 6.97916 22.0773 6.36316 22.488C6.02716 25.2693 5.85916 27.3787 5.85916 28.816C5.85916 30.2347 5.98982 31.252 6.25116 31.868C4.66449 31.4573 3.58182 30.916 3.00316 30.244C2.42449 29.5533 2.13516 28.6013 2.13516 27.388C2.13516 26.6787 2.33116 24.8773 2.72316 21.984C3.41382 17.1867 3.75916 13.472 3.75916 10.84C3.75916 10.28 3.72182 9.51467 3.64716 8.544C5.06582 8.61867 6.10182 8.84267 6.75516 9.216C7.03516 9.36533 7.24982 9.59867 7.39916 9.916ZM26.0163 17.084C26.0163 17.364 25.783 18.8387 25.3163 21.508C24.8683 24.1587 24.635 26.352 24.6163 28.088C24.6163 29.8053 24.7283 30.916 24.9523 31.42C23.4963 31.0467 22.5163 30.4867 22.0123 29.74C21.5083 28.9747 21.2563 27.864 21.2563 26.408C21.2563 25.624 21.4056 24.2053 21.7043 22.152C22.003 20.0987 22.1523 18.5027 22.1523 17.364C22.1523 16.2253 22.0963 15.348 21.9843 14.732C22.395 14.6947 22.7776 14.676 23.1323 14.676C24.215 14.676 24.9616 14.8627 25.3723 15.236C25.8016 15.5907 26.0163 16.2067 26.0163 17.084ZM26.4363 12.212C25.9136 12.2867 25.4563 12.324 25.0643 12.324C23.1416 12.324 22.1803 11.652 22.1803 10.308C22.1803 9.82267 22.3203 9.16 22.6003 8.32C23.123 8.24533 23.5803 8.208 23.9723 8.208C25.895 8.208 26.8563 8.88 26.8563 10.224C26.8563 10.7093 26.7163 11.372 26.4363 12.212ZM40.3604 14.844C41.4617 14.844 42.2457 15.1893 42.7124 15.88C43.1977 16.552 43.4404 17.476 43.4404 18.652C43.4404 19.8093 43.2537 21.4427 42.8804 23.552C42.5257 25.6613 42.3484 27.2013 42.3484 28.172C42.3484 29.124 42.4697 29.824 42.7124 30.272C42.9551 30.7013 43.3657 31.0747 43.9444 31.392C43.7017 31.4107 43.3564 31.42 42.9084 31.42C41.3404 31.42 40.2204 31.1773 39.5484 30.692C38.8951 30.2067 38.5684 29.3573 38.5684 28.144C38.5684 27.4533 38.7551 26.1093 39.1284 24.112C39.5017 22.096 39.6884 20.5933 39.6884 19.604C39.6884 18.372 39.3151 17.756 38.5684 17.756C38.1391 17.756 37.6537 18.008 37.1124 18.512C36.5711 19.016 36.0484 19.7067 35.5444 20.584C35.0404 21.4427 34.6204 22.5533 34.2844 23.916C33.9484 25.2787 33.7804 26.6413 33.7804 28.004C33.7804 29.348 33.8364 30.3467 33.9484 31C33.3511 31.0373 32.9591 31.056 32.7724 31.056C31.7084 31.056 30.9431 30.8693 30.4764 30.496C30.0097 30.1227 29.7764 29.5067 29.7764 28.648C29.7764 28.2747 29.9724 26.8373 30.3644 24.336C30.7564 21.8347 30.9524 19.8467 30.9524 18.372C30.9524 16.8787 30.7937 15.5067 30.4764 14.256C31.8391 14.6853 32.7911 15.3013 33.3324 16.104C33.8737 16.888 34.1444 17.7933 34.1444 18.82C34.1444 19.828 34.0324 21.004 33.8084 22.348C34.4244 20.2573 35.3951 18.484 36.7204 17.028C38.0457 15.572 39.2591 14.844 40.3604 14.844ZM55.7318 15.124C56.0864 15.124 56.3571 15.1427 56.5438 15.18C57.0291 15.2733 57.2904 15.6187 57.3278 16.216C55.2931 16.6453 53.6691 17.7467 52.4558 19.52C51.2611 21.2933 50.6638 23.1413 50.6638 25.064C50.6638 27.304 51.3451 28.424 52.7078 28.424C53.5291 28.424 54.2664 27.976 54.9198 27.08C56.0771 25.456 56.8891 22.9173 57.3558 19.464C57.7104 16.7387 58.3731 14.984 59.3438 14.2C59.8104 13.808 60.3891 13.5 61.0798 13.276C60.8184 15.2547 60.6878 16.748 60.6878 17.756C60.6878 25.2227 59.8851 30.832 58.2798 34.584C56.6931 38.336 54.0984 40.212 50.4958 40.212C49.0398 40.212 47.9011 39.82 47.0798 39.036C46.2584 38.2707 45.8478 37.4213 45.8478 36.488C45.8478 35.5733 46.1371 34.8173 46.7158 34.22C47.2944 33.6413 48.1064 33.352 49.1518 33.352C49.5811 33.352 50.0198 33.4453 50.4678 33.632C49.7584 34.0987 49.4038 34.8173 49.4038 35.788C49.4038 36.4413 49.5998 37.0013 49.9918 37.468C50.3838 37.9533 50.8598 38.196 51.4198 38.196C51.9984 38.196 52.5024 38.0747 52.9318 37.832C53.3611 37.608 53.7998 37.1973 54.2478 36.6C54.6958 36.0027 55.0878 35.256 55.4238 34.36C56.1891 32.288 56.6091 29.46 56.6838 25.876C56.1424 27.4813 55.3211 28.7693 54.2198 29.74C53.1184 30.7107 51.9984 31.196 50.8598 31.196C49.4224 31.196 48.3211 30.6547 47.5558 29.572C46.8091 28.4707 46.4358 27.0707 46.4358 25.372C46.4358 23.3933 46.9118 21.5547 47.8638 19.856C48.9278 17.896 50.4024 16.5333 52.2878 15.768C53.3331 15.3387 54.4811 15.124 55.7318 15.124ZM77.8277 31.448C77.1557 31.448 76.661 31.28 76.3437 30.944C76.0264 30.5893 75.7557 30.0667 75.5317 29.376C75.3077 28.6667 74.869 26.7813 74.2157 23.72C73.7864 24.0933 73.0864 24.2987 72.1157 24.336L67.3277 24.504C66.189 27.2853 65.349 29.7587 64.8077 31.924C63.0157 31.2893 62.1197 30.5707 62.1197 29.768C62.1197 29.4133 62.661 28.088 63.7437 25.792C64.8264 23.496 66.049 20.892 67.4117 17.98C68.793 15.0493 69.7264 12.9213 70.2117 11.596L70.7157 10.224C70.5664 9.96267 70.2024 9.48667 69.6237 8.796C70.2957 8.572 70.8744 8.46 71.3597 8.46C71.8637 8.46 72.2744 8.49733 72.5917 8.572C72.9277 8.64667 73.217 8.77733 73.4597 8.964C73.721 9.132 73.945 9.30933 74.1317 9.496C74.337 9.68267 74.5237 9.96267 74.6917 10.336C74.8597 10.6907 74.9997 11.0173 75.1117 11.316C75.2237 11.596 75.345 11.9973 75.4757 12.52C75.625 13.0427 75.737 13.5 75.8117 13.892C75.905 14.2653 76.017 14.7973 76.1477 15.488C76.297 16.16 76.4464 16.8133 76.5957 17.448C76.745 18.0827 77.0064 19.296 77.3797 21.088C77.753 22.8613 78.0424 24.196 78.2477 25.092C78.4717 25.9693 78.7797 26.9587 79.1717 28.06C79.5824 29.1613 80.0117 30.0293 80.4597 30.664C79.377 31.1867 78.4997 31.448 77.8277 31.448ZM72.0037 13.948C71.7424 14.5453 71.1637 15.824 70.2677 17.784C69.3904 19.7253 68.709 21.2747 68.2237 22.432H73.9637C73.0864 18.4 72.433 15.572 72.0037 13.948ZM93.2706 14.844C94.3719 14.844 95.1559 15.1893 95.6226 15.88C96.1079 16.552 96.3506 17.476 96.3506 18.652C96.3506 19.8093 96.1639 21.4427 95.7906 23.552C95.4359 25.6613 95.2586 27.2013 95.2586 28.172C95.2586 29.124 95.3799 29.824 95.6226 30.272C95.8652 30.7013 96.2759 31.0747 96.8546 31.392C96.6119 31.4107 96.2666 31.42 95.8186 31.42C94.2506 31.42 93.1306 31.1773 92.4586 30.692C91.8052 30.2067 91.4786 29.3573 91.4786 28.144C91.4786 27.4533 91.6652 26.1093 92.0386 24.112C92.4119 22.096 92.5986 20.5933 92.5986 19.604C92.5986 18.372 92.2252 17.756 91.4786 17.756C91.0492 17.756 90.5639 18.008 90.0226 18.512C89.4812 19.016 88.9586 19.7067 88.4546 20.584C87.9506 21.4427 87.5306 22.5533 87.1946 23.916C86.8586 25.2787 86.6906 26.6413 86.6906 28.004C86.6906 29.348 86.7466 30.3467 86.8586 31C86.2612 31.0373 85.8692 31.056 85.6826 31.056C84.6186 31.056 83.8532 30.8693 83.3866 30.496C82.9199 30.1227 82.6866 29.5067 82.6866 28.648C82.6866 28.2747 82.8826 26.8373 83.2746 24.336C83.6666 21.8347 83.8626 19.8467 83.8626 18.372C83.8626 16.8787 83.7039 15.5067 83.3866 14.256C84.7492 14.6853 85.7012 15.3013 86.2426 16.104C86.7839 16.888 87.0546 17.7933 87.0546 18.82C87.0546 19.828 86.9426 21.004 86.7186 22.348C87.3346 20.2573 88.3052 18.484 89.6306 17.028C90.9559 15.572 92.1692 14.844 93.2706 14.844ZM105.45 17.084C105.45 17.364 105.217 18.8387 104.75 21.508C104.302 24.1587 104.069 26.352 104.05 28.088C104.05 29.8053 104.162 30.916 104.386 31.42C102.93 31.0467 101.95 30.4867 101.446 29.74C100.942 28.9747 100.69 27.864 100.69 26.408C100.69 25.624 100.839 24.2053 101.138 22.152C101.437 20.0987 101.586 18.5027 101.586 17.364C101.586 16.2253 101.53 15.348 101.418 14.732C101.829 14.6947 102.211 14.676 102.566 14.676C103.649 14.676 104.395 14.8627 104.806 15.236C105.235 15.5907 105.45 16.2067 105.45 17.084ZM105.87 12.212C105.347 12.2867 104.89 12.324 104.498 12.324C102.575 12.324 101.614 11.652 101.614 10.308C101.614 9.82267 101.754 9.16 102.034 8.32C102.557 8.24533 103.014 8.208 103.406 8.208C105.329 8.208 106.29 8.88 106.29 10.224C106.29 10.7093 106.15 11.372 105.87 12.212ZM121.306 28.032C121.306 28.9653 121.362 29.9547 121.474 31C120.877 31.0373 120.485 31.056 120.298 31.056C119.253 31.056 118.497 30.8787 118.03 30.524C117.563 30.1507 117.33 29.6093 117.33 28.9C117.33 28.1907 117.526 26.7347 117.918 24.532C118.329 22.3107 118.534 20.6307 118.534 19.492C118.534 18.3347 118.161 17.756 117.414 17.756C117.003 17.756 116.555 18.008 116.07 18.512C115.585 18.9973 115.127 19.6693 114.698 20.528C114.269 21.368 113.905 22.4507 113.606 23.776C113.326 25.1013 113.186 26.38 113.186 27.612C113.186 28.8253 113.242 29.9547 113.354 31C112.757 31.0373 112.365 31.056 112.178 31.056C111.133 31.056 110.377 30.8787 109.91 30.524C109.443 30.1507 109.21 29.5347 109.21 28.676C109.21 28.4707 109.397 27.08 109.77 24.504C110.162 21.928 110.358 19.8933 110.358 18.4C110.358 16.888 110.199 15.5067 109.882 14.256C111.263 14.6853 112.225 15.3013 112.766 16.104C113.307 16.9067 113.578 17.896 113.578 19.072C113.578 19.6693 113.513 20.4253 113.382 21.34C114.017 19.4733 114.894 17.924 116.014 16.692C117.153 15.46 118.245 14.844 119.29 14.844C120.354 14.844 121.119 15.236 121.586 16.02C122.071 16.804 122.314 17.9333 122.314 19.408C123.023 18.0453 123.835 16.944 124.75 16.104C125.665 15.264 126.505 14.844 127.27 14.844C128.409 14.844 129.211 15.1893 129.678 15.88C130.163 16.552 130.406 17.476 130.406 18.652C130.406 19.8093 130.219 21.4427 129.846 23.552C129.491 25.6613 129.314 27.2013 129.314 28.172C129.314 29.124 129.435 29.824 129.678 30.272C129.921 30.7013 130.331 31.0747 130.91 31.392C130.667 31.4107 130.322 31.42 129.874 31.42C128.306 31.42 127.186 31.1773 126.514 30.692C125.861 30.2067 125.534 29.3573 125.534 28.144C125.534 27.4533 125.721 26.1093 126.094 24.112C126.467 22.096 126.654 20.5933 126.654 19.604C126.654 18.372 126.281 17.756 125.534 17.756C124.974 17.756 124.367 18.1667 123.714 18.988C123.079 19.7907 122.519 21.0133 122.034 22.656C121.549 24.28 121.306 26.072 121.306 28.032ZM140.445 24.112C139.549 24.112 138.672 24.0093 137.813 23.804C137.794 23.9907 137.785 24.28 137.785 24.672C137.785 26.2213 138.074 27.388 138.653 28.172C139.232 28.956 139.922 29.348 140.725 29.348C141.528 29.348 142.293 29.1053 143.021 28.62C143.749 28.1347 144.384 27.4627 144.925 26.604C145.597 26.7533 145.933 27.0987 145.933 27.64C144.29 30.16 142.172 31.42 139.577 31.42C138.009 31.42 136.637 30.8227 135.461 29.628C134.285 28.4147 133.697 26.7347 133.697 24.588C133.697 22.9827 134.005 21.4613 134.621 20.024C135.237 18.568 136.217 17.3453 137.561 16.356C138.905 15.348 140.389 14.844 142.013 14.844C143.656 14.844 144.86 15.2173 145.625 15.964C146.39 16.7107 146.773 17.6907 146.773 18.904C146.773 20.6587 146.157 21.9653 144.925 22.824C143.712 23.6827 142.218 24.112 140.445 24.112ZM141.621 16.58C140.669 16.58 139.866 17.168 139.213 18.344C138.56 19.52 138.13 20.948 137.925 22.628H138.345C139.969 22.628 141.164 22.208 141.929 21.368C142.713 20.528 143.105 19.52 143.105 18.344C143.105 17.8587 142.974 17.448 142.713 17.112C142.47 16.7573 142.106 16.58 141.621 16.58Z" fill="currentcolor"/>
</svg>
